<svg xmlns="http://www.w3.org/2000/svg" xmlns:xlink="http://www.w3.org/1999/xlink" viewBox="0,0,256,256" width="48px" height="48px" fill-rule="nonzero"><g fill="#ffffff" fill-rule="nonzero" stroke="none" stroke-width="1" stroke-linecap="butt" stroke-linejoin="miter" stroke-miterlimit="10" stroke-dasharray="" stroke-dashoffset="0" font-family="none" font-weight="none" font-size="none" text-anchor="none" style="mix-blend-mode: normal"><g transform="scale(4,4)"><path d="M32,10c-12.15,0 -22,9.85 -22,22c0,12.15 9.85,22 22,22c12.15,0 22,-9.85 22,-22c0,-3.19 -0.68016,-6.23094 -1.91016,-8.96094l-2.73047,4.2207c0.42,1.51 0.64063,3.10023 0.64063,4.74023c0,9.94 -8.06,18 -18,18c-9.94,0 -18,-8.06 -18,-18c0,-9.94 8.06,-18 18,-18c4.33,0 8.30039,1.53031 11.40039,4.07031l2.17969,-3.38086c-3.74,-2.94 -8.45008,-4.68945 -13.58008,-4.68945zM49.96289,15.06445c-0.64179,0.01292 -1.26695,0.33273 -1.64258,0.91211l-14.52148,22.44531l-9.02148,-10.33594c-0.725,-0.831 -1.98827,-0.92036 -2.82227,-0.19336c-0.832,0.726 -0.91841,1.99027 -0.19141,2.82227l10.76367,12.33594c0.381,0.437 0.93281,0.68555 1.50781,0.68555c0.048,0 0.09458,-0.00091 0.14258,-0.00391c0.627,-0.045 1.19611,-0.38316 1.53711,-0.91016l15.96484,-24.67187c0.6,-0.928 0.3352,-2.16562 -0.5918,-2.76562c-0.348,-0.225 -0.73993,-0.32807 -1.125,-0.32031z"></path></g></g></svg>